<svg xmlns="http://www.w3.org/2000/svg" viewBox="0 0 1024 1024">
  <rect width="1024" height="1024" rx="220" fill="#f6fbf1"/>
  <circle cx="512" cy="512" r="390" fill="#17382a"/>
  <circle cx="512" cy="512" r="330" fill="#f2c94c"/>
  <circle cx="512" cy="512" r="280" fill="#f8fff2"/>
  <path d="M335 420 397 320l73 78 42-118 42 118 73-78 62 100-52 72H387z" fill="#17382a"/>
  <path d="M381 438h262l-36 55H417z" fill="#f2c94c"/>
  <path d="M512 715c-24-116-18-210 0-288" fill="none" stroke="#17382a" stroke-width="42" stroke-linecap="round"/>
  <path d="M500 540c-92-16-158-78-181-168 96-14 176 34 204 122 7 22-2 42-23 46z" fill="#1f9d55"/>
  <path d="M524 540c92-16 158-78 181-168-96-14-176 34-204 122-7 22 2 42 23 46z" fill="#0f7d48"/>
  <path d="M512 654c-72-30-124-82-155-156 79-1 145 35 184 103 12 21-5 62-29 53z" fill="#34c759"/>
  <path d="M512 654c72-30 124-82 155-156-79-1-145 35-184 103-12 21 5 62 29 53z" fill="#168a50"/>
  <path d="M348 741c43-42 99-64 164-64s121 22 164 64" fill="none" stroke="#17382a" stroke-width="42" stroke-linecap="round"/>
  <text x="512" y="846" text-anchor="middle" font-family="Arial, Helvetica, sans-serif" font-size="118" font-weight="800" fill="#17382a">KNG</text>
</svg>
